 http://www.imdb.com/title/tt0078748/


Alien" is the first movie of one of the most popular sagas in science fiction history, and introduces Sigourney Weaver as Ripley, the iron-willed woman destined to battle the galaxy's ultimate creature. The terror begins when the crew of the spaceship Nostromo investigates a transmission from a desolate planet and makes a horrifying discovery, a life form that breeds within a human host. Now the crew must fight not only for its own survival, but for the survival of all mankind.

Format : MPEG-4
Format profile : Base Media / Version 2
Codec ID : mp42
File size : 999 MiB
Duration : 1h 51mn
Overall bit rate : 1 258 Kbps
Encoded date : UTC 2009-10-17 09:58:17
Tagged date : UTC 2009-10-17 14:58:23
Writing application : HandBrake 0.9.3 2008112300

Video
ID : 1
Format : AVC
Format/Info : Advanced Video Codec
Format profile : Main@L4.0
Format settings, CABAC : Yes
Format settings, ReFrames : 3 frames
Codec ID : avc1
Codec ID/Info : Advanced Video Coding
Duration : 1h 51mn
Bit rate mode : Variable
Bit rate : 1 094 Kbps
Width : 720 pixels
Height : 436 pixels
Display aspect ratio : 2.35:1
Frame rate mode : Variable
Frame rate : 25.000 fps
Minimum frame rate : 12.500 fps
Maximum frame rate : 86.486 fps
Resolution : 24 bits
Colorimetry : 4:2:0
Scan type : Progressive
Bits/(Pixel*Frame) : 0.139
Stream size : 869 MiB (87%)
Writing library : x264 core 65


Audio
ID : 2
Format : AAC
Format/Info : Advanced Audio Codec
Format version : Version 4
Format profile : LC
Format settings, SBR : No
Codec ID : 40
Duration : 1h 51mn
Bit rate mode : Variable
Bit rate : 160 Kbps
Maximum bit rate : 226 Kbps
Channel(s) : 2 channels
Channel positions : L R
Sampling rate : 48.0 KHz
Resolution : 16 bits
Stream size : 127 MiB (13%)
Language : English
Encoded date : UTC 2009-10-17 09:58:17
Tagged date : UTC 2009-10-17 14:58:18 